<?xml version="1.0" standalone="no"?>
<!DOCTYPE svg PUBLIC "-//W3C//DTD SVG 20010904//EN"
 "http://www.w3.org/TR/2001/REC-SVG-20010904/DTD/svg10.dtd">
<svg version="1.0" xmlns="http://www.w3.org/2000/svg"
 width="500.000000pt" height="500.000000pt" viewBox="0 0 500.000000 500.000000"
 preserveAspectRatio="xMidYMid meet">
<metadata>
Created by potrace 1.14, written by Peter Selinger 2001-2017
</metadata>
<g transform="translate(0.000000,500.000000) scale(0.100000,-0.100000)"
fill="#000000" stroke="none">
<path d="M2313 4002 c-177 -265 -403 -617 -403 -628 0 -1 -27 -49 -61 -106
-265 -448 -434 -869 -484 -1203 -8 -52 -8 -266 0 -330 10 -79 26 -155 33 -155
4 -1 27 -5 51 -9 l43 -9 -7 47 c-20 124 -22 154 -20 271 4 196 52 426 132 628
37 94 36 87 -1 -88 -13 -63 -27 -132 -30 -153 -19 -124 -23 -153 -32 -267 -13
-154 -7 -421 11 -438 7 -7 199 -6 285 2 80 7 105 11 185 26 28 6 61 12 75 15
119 22 290 76 465 145 297 119 573 285 795 479 83 73 217 208 230 231 10 19
-99 281 -207 495 -153 304 -321 583 -635 1053 -115 171 -210 312 -211 312 -1
0 -97 -143 -214 -318z"/>
<path d="M3456 3589 c3 -5 13 -9 23 -9 10 0 44 -9 75 -20 183 -62 296 -154
367 -295 77 -154 72 -326 -16 -535 -66 -156 -177 -312 -340 -475 -121 -122
-132 -132 -255 -226 -248 -190 -561 -356 -870 -462 -114 -39 -297 -88 -385
-103 -11 -1 -29 -5 -40 -7 -11 -3 -49 -8 -85 -12 -36 -4 -74 -9 -85 -12 -11
-2 -87 -4 -170 -5 -352 -1 -614 95 -750 275 -119 160 -131 381 -30 614 l25 58
-25 -30 c-41 -48 -110 -154 -154 -237 -192 -356 -155 -690 98 -881 172 -129
400 -189 727 -191 l131 -1 59 -54 c148 -136 370 -246 574 -286 75 -14 305 -14
387 1 373 67 688 304 861 649 28 55 78 191 88 240 19 90 26 130 30 200 6 78 7
81 47 119 201 189 264 254 348 361 143 181 242 373 279 541 14 62 14 227 0
289 -21 93 -69 175 -150 255 -107 107 -244 174 -435 214 -111 23 -339 40 -329
25z"/>
</g>
</svg>
